<svg xmlns="http://www.w3.org/2000/svg" width="73" height="74" viewBox="0 0 73 74"><g><g><path d="M54.56 57.118a8.926 8.926 0 0 1-1.282 5.66c-1.725 2.761-5.73 4.884-8.934 5.486-.955 3.224-3.827 5.59-7.313 5.72a23.489 23.489 0 0 1-17.476-6.876 1.095 1.095 0 0 1-.006-1.538 1.07 1.07 0 0 1 1.524-.006A21.348 21.348 0 0 0 36.95 71.81c3.491-.131 5.577-3.104 5.577-5.903 0-2.355-1.188-3.372-3.435-7.892a3.878 3.878 0 0 0-5.282-1.59l-1.195.653c-4.418 2.413-9.951.763-12.35-3.716l-8.01-14.955a9.288 9.288 0 0 1-1.1-4.37c0-3.386 1.832-6.49 4.78-8.1l1.194-.652c1.89-1.032 2.6-3.418 1.574-5.334l-2.72-5.08c-2.085-3.892-7.462-4.162-9.96-.554a21.705 21.705 0 0 0-3.872 12.418c0 3.558.892 7.106 2.58 10.258 13.36 24.861 12.642 23.779 13.725 25.389a1.094 1.094 0 0 1-.285 1.51 1.07 1.07 0 0 1-1.497-.288c-1.19-1.768-.563-.88-13.838-25.577-4.18-7.804-3.778-17.45 1.421-24.957 3.405-4.915 10.761-4.571 13.62.766l2.721 5.08c1.587 2.963.502 6.673-2.444 8.282l-1.195.653a7.035 7.035 0 0 0-3.65 6.186c0 1.157.291 2.31.84 3.335l8.011 14.956a6.949 6.949 0 0 0 6.127 3.685c2.346 0 3.719-1.152 4.498-1.5 2.934-1.603 6.61-.507 8.202 2.467 2.095 4.305 3.714 5.79 3.693 8.983 2.437-.63 5.485-2.282 6.775-4.347a6.741 6.741 0 0 0 1.005-3.442c-4.728 1.772-7.806-.439-7.806-3.052 0-1.754 1.355-3.452 3.086-3.865 2.23-.534 4.978.776 6.228 3.635 2.245-1.672 3.718-4.288 3.85-6.966a1.08 1.08 0 0 1 1.13-1.032c.594.03 1.051.54 1.022 1.14-.178 3.588-2.275 7.074-5.41 9.083zm-2.474-1.134c-.668-1.735-2.113-2.67-3.33-2.67-1.18 0-1.947 1.01-1.947 1.809 0 1.463 2.527 2.043 5.277.861zm.484-42.87c0 1.937-1.56 3.513-3.478 3.513-1.918 0-3.479-1.576-3.479-3.512 0-1.937 1.56-3.513 3.479-3.513 1.918 0 3.478 1.576 3.478 3.513zm-2.154 0c0-.736-.594-1.336-1.324-1.336-.73 0-1.324.6-1.324 1.337s.594 1.337 1.324 1.337c.73 0 1.324-.6 1.324-1.337zm4.55 20.316v2.183c0 .989-.797 1.793-1.776 1.793h-6.947a1.786 1.786 0 0 1-1.775-1.793V33.43c0-.963.756-1.752 1.7-1.792v-7.71a1.793 1.793 0 0 1-1.33-1.736v-1.957c0-.988.797-1.792 1.776-1.792h5.172c.815 0 1.478.669 1.478 1.492v11.703c.945.04 1.701.829 1.701 1.792zm-2.155.382c-.063-.017-1.185.168-1.604-.905-.18-.398-.062.088-.097-12.289h-4.117v1.234c.76.175 1.33.863 1.33 1.683v8.551a1.72 1.72 0 0 1-1.7 1.726v1.418h6.188zm15.165-9.629a18.463 18.463 0 0 1-5.414 12.442c-7.15 7.137-18.71 7.131-25.839-.15-7.082-7.235-7.05-18.905.149-26.09C47.202.072 64.567 5.542 67.574 19.59a1.087 1.087 0 0 1-.825 1.293 1.077 1.077 0 0 1-1.28-.833 16.26 16.26 0 0 0-4.29-7.987 15.999 15.999 0 0 0-22.793-.133c-6.345 6.333-6.384 16.628-.131 23.014 9.857 10.068 27.05 3.42 27.567-10.841.022-.6.522-1.07 1.116-1.048a1.084 1.084 0 0 1 1.038 1.127zM66.08 40.22c-4.945 4.936-11.66 7.318-18.495 6.688-.625.7-1.298 1.388-2.005 2.052a1.07 1.07 0 0 1-1.523-.056 1.095 1.095 0 0 1 .056-1.537c2.346-2.203 2.272-2.782 3.156-2.679 6.357.745 12.677-1.404 17.296-6.015 8.315-8.3 8.366-21.79.172-30.161-8.236-8.413-21.599-8.43-29.87-.174-8.315 8.3-8.367 21.79-.172 30.16 4.338 4.434 5.103 8.374 4.257 12.105-.073.324.266.597.556.404.465-.311.928-.635 1.376-.964a1.07 1.07 0 0 1 1.504.24c.35.486.244 1.166-.238 1.52-.474.347-.963.69-1.454 1.018-1.681 1.122-3.91-.102-3.91-2.118 0-1.278 1.881-5.052-3.623-10.675-9.005-9.198-8.998-24.066.19-33.237 9.108-9.092 23.834-9.085 32.916.192 9.022 9.215 8.982 24.082-.19 33.237z"/><path fill="#fff" d="M54.56 57.118a8.926 8.926 0 0 1-1.282 5.66c-1.725 2.761-5.73 4.884-8.934 5.486-.955 3.224-3.827 5.59-7.313 5.72a23.489 23.489 0 0 1-17.476-6.876 1.095 1.095 0 0 1-.006-1.538 1.07 1.07 0 0 1 1.524-.006A21.348 21.348 0 0 0 36.95 71.81c3.491-.131 5.577-3.104 5.577-5.903 0-2.355-1.188-3.372-3.435-7.892a3.878 3.878 0 0 0-5.282-1.59l-1.195.653c-4.418 2.413-9.951.763-12.35-3.716l-8.01-14.955a9.288 9.288 0 0 1-1.1-4.37c0-3.386 1.832-6.49 4.78-8.1l1.194-.652c1.89-1.032 2.6-3.418 1.574-5.334l-2.72-5.08c-2.085-3.892-7.462-4.162-9.96-.554a21.705 21.705 0 0 0-3.872 12.418c0 3.558.892 7.106 2.58 10.258 13.36 24.861 12.642 23.779 13.725 25.389a1.094 1.094 0 0 1-.285 1.51 1.07 1.07 0 0 1-1.497-.288c-1.19-1.768-.563-.88-13.838-25.577-4.18-7.804-3.778-17.45 1.421-24.957 3.405-4.915 10.761-4.571 13.62.766l2.721 5.08c1.587 2.963.502 6.673-2.444 8.282l-1.195.653a7.035 7.035 0 0 0-3.65 6.186c0 1.157.291 2.31.84 3.335l8.011 14.956a6.949 6.949 0 0 0 6.127 3.685c2.346 0 3.719-1.152 4.498-1.5 2.934-1.603 6.61-.507 8.202 2.467 2.095 4.305 3.714 5.79 3.693 8.983 2.437-.63 5.485-2.282 6.775-4.347a6.741 6.741 0 0 0 1.005-3.442c-4.728 1.772-7.806-.439-7.806-3.052 0-1.754 1.355-3.452 3.086-3.865 2.23-.534 4.978.776 6.228 3.635 2.245-1.672 3.718-4.288 3.85-6.966a1.08 1.08 0 0 1 1.13-1.032c.594.03 1.051.54 1.022 1.14-.178 3.588-2.275 7.074-5.41 9.083zm-2.474-1.134c-.668-1.735-2.113-2.67-3.33-2.67-1.18 0-1.947 1.01-1.947 1.809 0 1.463 2.527 2.043 5.277.861zm.484-42.87c0 1.937-1.56 3.513-3.478 3.513-1.918 0-3.479-1.576-3.479-3.512 0-1.937 1.56-3.513 3.479-3.513 1.918 0 3.478 1.576 3.478 3.513zm-2.154 0c0-.736-.594-1.336-1.324-1.336-.73 0-1.324.6-1.324 1.337s.594 1.337 1.324 1.337c.73 0 1.324-.6 1.324-1.337zm4.55 20.316v2.183c0 .989-.797 1.793-1.776 1.793h-6.947a1.786 1.786 0 0 1-1.775-1.793V33.43c0-.963.756-1.752 1.7-1.792v-7.71a1.793 1.793 0 0 1-1.33-1.736v-1.957c0-.988.797-1.792 1.776-1.792h5.172c.815 0 1.478.669 1.478 1.492v11.703c.945.04 1.701.829 1.701 1.792zm-2.155.382c-.063-.017-1.185.168-1.604-.905-.18-.398-.062.088-.097-12.289h-4.117v1.234c.76.175 1.33.863 1.33 1.683v8.551a1.72 1.72 0 0 1-1.7 1.726v1.418h6.188zm15.165-9.629a18.463 18.463 0 0 1-5.414 12.442c-7.15 7.137-18.71 7.131-25.839-.15-7.082-7.235-7.05-18.905.149-26.09C47.202.072 64.567 5.542 67.574 19.59a1.087 1.087 0 0 1-.825 1.293 1.077 1.077 0 0 1-1.28-.833 16.26 16.26 0 0 0-4.29-7.987 15.999 15.999 0 0 0-22.793-.133c-6.345 6.333-6.384 16.628-.131 23.014 9.857 10.068 27.05 3.42 27.567-10.841.022-.6.522-1.07 1.116-1.048a1.084 1.084 0 0 1 1.038 1.127zM66.08 40.22c-4.945 4.936-11.66 7.318-18.495 6.688-.625.7-1.298 1.388-2.005 2.052a1.07 1.07 0 0 1-1.523-.056 1.095 1.095 0 0 1 .056-1.537c2.346-2.203 2.272-2.782 3.156-2.679 6.357.745 12.677-1.404 17.296-6.015 8.315-8.3 8.366-21.79.172-30.161-8.236-8.413-21.599-8.43-29.87-.174-8.315 8.3-8.367 21.79-.172 30.16 4.338 4.434 5.103 8.374 4.257 12.105-.073.324.266.597.556.404.465-.311.928-.635 1.376-.964a1.07 1.07 0 0 1 1.504.24c.35.486.244 1.166-.238 1.52-.474.347-.963.69-1.454 1.018-1.681 1.122-3.91-.102-3.91-2.118 0-1.278 1.881-5.052-3.623-10.675-9.005-9.198-8.998-24.066.19-33.237 9.108-9.092 23.834-9.085 32.916.192 9.022 9.215 8.982 24.082-.19 33.237z"/></g></g></svg>