<svg xmlns="http://www.w3.org/2000/svg" width="90" height="85" viewBox="0 0 90 85"><g><g><path d="M90 34.24c0 11.797-9.618 21.395-21.439 21.395h-.037c.01.31.015.595.015.863 0 15.716-12.813 28.501-28.561 28.501-15.75 0-28.562-12.785-28.562-28.501a28.36 28.36 0 0 1 4.02-14.566C6.33 39.28 0 30.88 0 21.393 0 9.597 9.618-.001 21.44-.001s21.439 9.598 21.439 21.394c0 2.276-.359 4.515-1.066 6.662a28.51 28.51 0 0 1 5.944 1.017c1.126-4.51 3.752-8.595 7.413-11.526a21.504 21.504 0 0 1 13.392-4.7C80.382 12.847 90 22.445 90 34.242zm-2.42 0c0-10.464-8.532-18.978-19.019-18.978-8.726 0-16.47 6.115-18.495 14.571a28.53 28.53 0 0 1 8.82 5.323c.037-.004.078-.007.12-.007h1.452l-.017-.379c-.01-.205-.013-.432-.009-.691l.006-.369h-1.432a1.425 1.425 0 0 1-1.426-1.422c0-.784.64-1.422 1.426-1.422h1.938l.084-.246c.048-.142.099-.283.153-.423 2.231-5.769 8.752-8.65 14.535-6.422.75.295 1.11 1.123.822 1.852-.14.354-.41.631-.759.783-.349.151-.736.158-1.09.018-3.972-1.525-8.461.155-10.447 3.907l-.281.53h9.531c.786 0 1.425.639 1.425 1.423 0 .785-.639 1.422-1.425 1.422H63.287l-.006.357c-.005.256.001.507.017.744l.023.338h9.098c.786 0 1.425.638 1.425 1.422 0 .785-.639 1.423-1.425 1.423h-8.283l.329.548a8.385 8.385 0 0 0 10.22 3.514 1.424 1.424 0 0 1 1.09.028c.349.154.616.434.753.788a1.426 1.426 0 0 1-.825 1.841l-.032.013a11.193 11.193 0 0 1-8.607-.25 11.336 11.336 0 0 1-1.637-.903 28.072 28.072 0 0 1 .608 1.26 28.208 28.208 0 0 1 2.314 8.382c.07.002.14.004.212.004 10.487 0 19.018-8.513 19.018-18.978zM66.117 56.499a26.412 26.412 0 0 0-.192-3.162c-.644-5.298-2.881-10.214-6.47-14.215a25.611 25.611 0 0 0-2.949-2.816 26.142 26.142 0 0 0-9.004-4.79 26.095 26.095 0 0 0-8.945-1.064c-7.595.407-14.629 4.11-19.298 10.159a25.914 25.914 0 0 0-5.423 15.888c0 14.384 11.726 26.086 26.14 26.086 14.415 0 26.141-11.702 26.141-26.086zM2.421 21.393c0 8.753 5.92 16.3 14.42 18.413a28.839 28.839 0 0 1 3.759-4.227 1.413 1.413 0 0 1-.764-1.257V32.67l-.256-.079a6.312 6.312 0 0 1-4.484-6.05 1.424 1.424 0 0 1 2.848-.001 3.495 3.495 0 0 0 6.99-.001 3.496 3.496 0 0 0-3.495-3.487 6.3 6.3 0 0 1-6.272-5.391c-.462-3.074 1.435-6.08 4.413-6.99l.256-.078V8.465a1.424 1.424 0 0 1 2.848 0v2.044l.275.07a6.334 6.334 0 0 1 4.822 6.143 1.424 1.424 0 0 1-2.848 0 3.496 3.496 0 0 0-6.99 0 3.495 3.495 0 0 0 3.496 3.488 6.344 6.344 0 0 1 6.296 5.565 6.337 6.337 0 0 1-4.775 6.909l-.276.068v1.077c.072-.056.145-.11.218-.165a28.77 28.77 0 0 1 3.795-2.393 28.242 28.242 0 0 1 12.564-3.265 18.805 18.805 0 0 0 1.196-6.613c0-10.464-8.531-18.978-19.018-18.978S2.42 10.929 2.42 21.393zM51.368 68.49c.114.369.077.76-.105 1.101a1.439 1.439 0 0 1-.855.705l-1.46.448a9.674 9.674 0 0 1-7.294-.64 6.85 6.85 0 0 0-3.935-.703l-4.133.493a1.45 1.45 0 0 1-1.423-.708 1.44 1.44 0 0 1 .082-1.584l1.11-1.514a8.541 8.541 0 0 0 1.633-4.389l.006-.067a24.8 24.8 0 0 0 .073-1.734l.011-.978h-5.106c-.8 0-1.45-.648-1.45-1.446 0-.798.65-1.447 1.45-1.447h4.872l-.208-1.14c-.09-.497-.19-.972-.305-1.45a18.104 18.104 0 0 1-.57-4.18 8.066 8.066 0 0 1 .574-3.006 7.715 7.715 0 0 1 4.224-4.287 8.108 8.108 0 0 1 3.23-.626c4.165 0 6.904 2.106 7.709 5.93a1.449 1.449 0 0 1-1.123 1.705 1.448 1.448 0 0 1-1.713-1.104c-.508-2.414-2.142-3.637-4.855-3.637h-.001a5.406 5.406 0 0 0-2.1.39 4.775 4.775 0 0 0-2.681 2.71 5.168 5.168 0 0 0-.364 1.927v.023c.03 1.18.195 2.354.492 3.49.187.772.348 1.59.479 2.437l.127.82h5.272c.8 0 1.45.648 1.45 1.446 0 .798-.65 1.446-1.45 1.446h-5.05l-.009.958a28.808 28.808 0 0 1-.088 1.99l-.005.07a11.461 11.461 0 0 1-.734 3.217l-.534 1.38 1.481-.067a9.735 9.735 0 0 1 4.877 1.056 6.792 6.792 0 0 0 5.13.451l1.458-.447a1.453 1.453 0 0 1 1.811.961z"/><path fill="#fff" d="M90 34.24c0 11.797-9.618 21.395-21.439 21.395h-.037c.01.31.015.595.015.863 0 15.716-12.813 28.501-28.561 28.501-15.75 0-28.562-12.785-28.562-28.501a28.36 28.36 0 0 1 4.02-14.566C6.33 39.28 0 30.88 0 21.393 0 9.597 9.618-.001 21.44-.001s21.439 9.598 21.439 21.394c0 2.276-.359 4.515-1.066 6.662a28.51 28.51 0 0 1 5.944 1.017c1.126-4.51 3.752-8.595 7.413-11.526a21.504 21.504 0 0 1 13.392-4.7C80.382 12.847 90 22.445 90 34.242zm-2.42 0c0-10.464-8.532-18.978-19.019-18.978-8.726 0-16.47 6.115-18.495 14.571a28.53 28.53 0 0 1 8.82 5.323c.037-.004.078-.007.12-.007h1.452l-.017-.379c-.01-.205-.013-.432-.009-.691l.006-.369h-1.432a1.425 1.425 0 0 1-1.426-1.422c0-.784.64-1.422 1.426-1.422h1.938l.084-.246c.048-.142.099-.283.153-.423 2.231-5.769 8.752-8.65 14.535-6.422.75.295 1.11 1.123.822 1.852-.14.354-.41.631-.759.783-.349.151-.736.158-1.09.018-3.972-1.525-8.461.155-10.447 3.907l-.281.53h9.531c.786 0 1.425.639 1.425 1.423 0 .785-.639 1.422-1.425 1.422H63.287l-.006.357c-.005.256.001.507.017.744l.023.338h9.098c.786 0 1.425.638 1.425 1.422 0 .785-.639 1.423-1.425 1.423h-8.283l.329.548a8.385 8.385 0 0 0 10.22 3.514 1.424 1.424 0 0 1 1.09.028c.349.154.616.434.753.788a1.426 1.426 0 0 1-.825 1.841l-.032.013a11.193 11.193 0 0 1-8.607-.25 11.336 11.336 0 0 1-1.637-.903 28.072 28.072 0 0 1 .608 1.26 28.208 28.208 0 0 1 2.314 8.382c.07.002.14.004.212.004 10.487 0 19.018-8.513 19.018-18.978zM66.117 56.499a26.412 26.412 0 0 0-.192-3.162c-.644-5.298-2.881-10.214-6.47-14.215a25.611 25.611 0 0 0-2.949-2.816 26.142 26.142 0 0 0-9.004-4.79 26.095 26.095 0 0 0-8.945-1.064c-7.595.407-14.629 4.11-19.298 10.159a25.914 25.914 0 0 0-5.423 15.888c0 14.384 11.726 26.086 26.14 26.086 14.415 0 26.141-11.702 26.141-26.086zM2.421 21.393c0 8.753 5.92 16.3 14.42 18.413a28.839 28.839 0 0 1 3.759-4.227 1.413 1.413 0 0 1-.764-1.257V32.67l-.256-.079a6.312 6.312 0 0 1-4.484-6.05 1.424 1.424 0 0 1 2.848-.001 3.495 3.495 0 0 0 6.99-.001 3.496 3.496 0 0 0-3.495-3.487 6.3 6.3 0 0 1-6.272-5.391c-.462-3.074 1.435-6.08 4.413-6.99l.256-.078V8.465a1.424 1.424 0 0 1 2.848 0v2.044l.275.07a6.334 6.334 0 0 1 4.822 6.143 1.424 1.424 0 0 1-2.848 0 3.496 3.496 0 0 0-6.99 0 3.495 3.495 0 0 0 3.496 3.488 6.344 6.344 0 0 1 6.296 5.565 6.337 6.337 0 0 1-4.775 6.909l-.276.068v1.077c.072-.056.145-.11.218-.165a28.77 28.77 0 0 1 3.795-2.393 28.242 28.242 0 0 1 12.564-3.265 18.805 18.805 0 0 0 1.196-6.613c0-10.464-8.531-18.978-19.018-18.978S2.42 10.929 2.42 21.393zM51.368 68.49c.114.369.077.76-.105 1.101a1.439 1.439 0 0 1-.855.705l-1.46.448a9.674 9.674 0 0 1-7.294-.64 6.85 6.85 0 0 0-3.935-.703l-4.133.493a1.45 1.45 0 0 1-1.423-.708 1.44 1.44 0 0 1 .082-1.584l1.11-1.514a8.541 8.541 0 0 0 1.633-4.389l.006-.067a24.8 24.8 0 0 0 .073-1.734l.011-.978h-5.106c-.8 0-1.45-.648-1.45-1.446 0-.798.65-1.447 1.45-1.447h4.872l-.208-1.14c-.09-.497-.19-.972-.305-1.45a18.104 18.104 0 0 1-.57-4.18 8.066 8.066 0 0 1 .574-3.006 7.715 7.715 0 0 1 4.224-4.287 8.108 8.108 0 0 1 3.23-.626c4.165 0 6.904 2.106 7.709 5.93a1.449 1.449 0 0 1-1.123 1.705 1.448 1.448 0 0 1-1.713-1.104c-.508-2.414-2.142-3.637-4.855-3.637h-.001a5.406 5.406 0 0 0-2.1.39 4.775 4.775 0 0 0-2.681 2.71 5.168 5.168 0 0 0-.364 1.927v.023c.03 1.18.195 2.354.492 3.49.187.772.348 1.59.479 2.437l.127.82h5.272c.8 0 1.45.648 1.45 1.446 0 .798-.65 1.446-1.45 1.446h-5.05l-.009.958a28.808 28.808 0 0 1-.088 1.99l-.005.07a11.461 11.461 0 0 1-.734 3.217l-.534 1.38 1.481-.067a9.735 9.735 0 0 1 4.877 1.056 6.792 6.792 0 0 0 5.13.451l1.458-.447a1.453 1.453 0 0 1 1.811.961z"/></g></g></svg>
