<svg xmlns="http://www.w3.org/2000/svg" width="76" height="76" viewBox="0 0 76 76"><g><g><path d="M34.2 17.733c0 .699-.565 1.266-1.266 1.266h-7.6a1.266 1.266 0 0 1-.618-2.372c.233-.549.618-2.297.618-5.227 0-2.645 0-6.268 6.32-6.334h.014A1.267 1.267 0 0 1 31.68 7.6c-3.814.04-3.814 1.064-3.814 3.8h2.534a1.266 1.266 0 1 1 0 2.534h-2.626c-.076.982-.194 1.837-.365 2.533h5.524c.7 0 1.267.568 1.267 1.267zm7.6-5.067c0 6.984-5.682 12.666-12.666 12.666-6.985 0-12.667-5.682-12.667-12.666C16.467 5.681 22.149 0 29.134 0 36.118 0 41.8 5.681 41.8 12.666zm-2.532 0c0-5.587-4.547-10.134-10.134-10.134C23.546 2.532 19 7.08 19 12.666 19 18.253 23.546 22.8 29.134 22.8c5.587 0 10.133-4.546 10.134-10.133zm1.186 23.849a1.271 1.271 0 0 1-1.632.74c-6.307-2.37-12.222-2.373-18.081-.01a1.266 1.266 0 1 1-.948-2.35c6.477-2.61 12.991-2.614 19.92-.01.655.245.986.976.741 1.63zm35.548 10.351v5.064c.049 7.683-9.472 14.443-22.8 16.316v6.487c0 .699-.567 1.266-1.268 1.266h-8.866c-.4 0-.776-.187-1.014-.506L38.73 71.06c-6.122 1.13-11.775.842-17.195-.881v4.553c0 .699-.566 1.266-1.267 1.266h-11.4c-.59 0-1.102-.406-1.235-.98L3.906 58.871C1.313 55.937 0 52.326 0 48.134c0-6.567 4.493-12.413 11.438-16.12-.34-.942-1.36-1.808-2.894-2.444-2.055-.85-4.562-1.074-5.998-.796.066 2.168.404 2.892 1.254 2.892a1.266 1.266 0 1 1 0 2.533C0 34.2 0 29.922 0 27.866c0-.48.27-.919.7-1.133 1.936-.966 5.807-.75 8.814.496 2.123.88 3.562 2.15 4.21 3.683 4.433-1.927 9.658-3.044 15.252-3.044 7.235 0 16.972 1.066 23.077 6.03l9.344-5.84a1.266 1.266 0 0 1 1.89 1.423l-2.159 7.554c4.059 1.048 7.134 3.866 9.357 8.564h4.25c.7 0 1.267.568 1.267 1.267zm-2.534 5.067v-3.8h-3.8a1.27 1.27 0 0 1-1.163-.762c-2.137-4.91-5.049-7.49-9.163-8.12a1.26 1.26 0 0 1-.874-.568 1.272 1.272 0 0 1-.152-1.032l1.628-5.698-7.338 4.587a1.268 1.268 0 0 1-1.525-.138C46.84 32.532 38.989 30.4 28.976 30.4c-14.581 0-26.443 7.955-26.443 17.734 0 3.709 1.134 6.742 3.466 9.273.15.162.253.36.303.574l3.573 15.485H19V68.4a1.267 1.267 0 0 1 1.714-1.185c5.714 2.157 11.703 2.553 18.301 1.21.48-.098.974.09 1.266.482l3.42 4.56h6.967v-6.333c0-.643.48-1.184 1.118-1.258 12.406-1.466 21.728-7.456 21.682-13.934v-.008zm-11.653-6.84a1.265 1.265 0 0 1-1.774.253 1.271 1.271 0 0 1-.258-1.777 1.259 1.259 0 0 1 1.768-.257l.01.007c.56.42.674 1.214.254 1.774z"/><path fill="#fff" d="M34.2 17.733c0 .699-.565 1.266-1.266 1.266h-7.6a1.266 1.266 0 0 1-.618-2.372c.233-.549.618-2.297.618-5.227 0-2.645 0-6.268 6.32-6.334h.014A1.267 1.267 0 0 1 31.68 7.6c-3.814.04-3.814 1.064-3.814 3.8h2.534a1.266 1.266 0 1 1 0 2.534h-2.626c-.076.982-.194 1.837-.365 2.533h5.524c.7 0 1.267.568 1.267 1.267zm7.6-5.067c0 6.984-5.682 12.666-12.666 12.666-6.985 0-12.667-5.682-12.667-12.666C16.467 5.681 22.149 0 29.134 0 36.118 0 41.8 5.681 41.8 12.666zm-2.532 0c0-5.587-4.547-10.134-10.134-10.134C23.546 2.532 19 7.08 19 12.666 19 18.253 23.546 22.8 29.134 22.8c5.587 0 10.133-4.546 10.134-10.133zm1.186 23.849a1.271 1.271 0 0 1-1.632.74c-6.307-2.37-12.222-2.373-18.081-.01a1.266 1.266 0 1 1-.948-2.35c6.477-2.61 12.991-2.614 19.92-.01.655.245.986.976.741 1.63zm35.548 10.351v5.064c.049 7.683-9.472 14.443-22.8 16.316v6.487c0 .699-.567 1.266-1.268 1.266h-8.866c-.4 0-.776-.187-1.014-.506L38.73 71.06c-6.122 1.13-11.775.842-17.195-.881v4.553c0 .699-.566 1.266-1.267 1.266h-11.4c-.59 0-1.102-.406-1.235-.98L3.906 58.871C1.313 55.937 0 52.326 0 48.134c0-6.567 4.493-12.413 11.438-16.12-.34-.942-1.36-1.808-2.894-2.444-2.055-.85-4.562-1.074-5.998-.796.066 2.168.404 2.892 1.254 2.892a1.266 1.266 0 1 1 0 2.533C0 34.2 0 29.922 0 27.866c0-.48.27-.919.7-1.133 1.936-.966 5.807-.75 8.814.496 2.123.88 3.562 2.15 4.21 3.683 4.433-1.927 9.658-3.044 15.252-3.044 7.235 0 16.972 1.066 23.077 6.03l9.344-5.84a1.266 1.266 0 0 1 1.89 1.423l-2.159 7.554c4.059 1.048 7.134 3.866 9.357 8.564h4.25c.7 0 1.267.568 1.267 1.267zm-2.534 5.067v-3.8h-3.8a1.27 1.27 0 0 1-1.163-.762c-2.137-4.91-5.049-7.49-9.163-8.12a1.26 1.26 0 0 1-.874-.568 1.272 1.272 0 0 1-.152-1.032l1.628-5.698-7.338 4.587a1.268 1.268 0 0 1-1.525-.138C46.84 32.532 38.989 30.4 28.976 30.4c-14.581 0-26.443 7.955-26.443 17.734 0 3.709 1.134 6.742 3.466 9.273.15.162.253.36.303.574l3.573 15.485H19V68.4a1.267 1.267 0 0 1 1.714-1.185c5.714 2.157 11.703 2.553 18.301 1.21.48-.098.974.09 1.266.482l3.42 4.56h6.967v-6.333c0-.643.48-1.184 1.118-1.258 12.406-1.466 21.728-7.456 21.682-13.934v-.008zm-11.653-6.84a1.265 1.265 0 0 1-1.774.253 1.271 1.271 0 0 1-.258-1.777 1.259 1.259 0 0 1 1.768-.257l.01.007c.56.42.674 1.214.254 1.774z"/></g></g></svg>