<svg xmlns="http://www.w3.org/2000/svg" width="11" height="20" viewBox="0 0 11 20" fill="#fff"><g><g><path d="M.337 10.651h2.29v9.026c0 .178.151.322.338.322h3.883a.33.33 0 0 0 .338-.322v-8.983h2.633a.332.332 0 0 0 .335-.286l.4-3.323a.313.313 0 0 0-.084-.25.344.344 0 0 0-.251-.109H7.186V4.643c0-.628.353-.946 1.05-.946h1.983a.33.33 0 0 0 .337-.323V.324a.33.33 0 0 0-.337-.322H7.486A2.223 2.223 0 0 0 7.36 0c-.475 0-2.123.089-3.425 1.235-1.443 1.27-1.242 2.791-1.194 3.055v2.436H.337A.33.33 0 0 0 0 7.048v3.28a.33.33 0 0 0 .337.323z"/></g></g></svg>
