<svg xmlns="http://www.w3.org/2000/svg" width="15" height="19" viewBox="0 0 15 19">
  <metadata><?xpacket begin="﻿" id="W5M0MpCehiHzreSzNTczkc9d"?>
<x:xmpmeta xmlns:x="adobe:ns:meta/" x:xmptk="Adobe XMP Core 5.6-c142 79.160924, 2017/07/13-01:06:39        ">
   <rdf:RDF xmlns:rdf="http://www.w3.org/1999/02/22-rdf-syntax-ns#">
      <rdf:Description rdf:about=""/>
   </rdf:RDF>
</x:xmpmeta>
                                                                                                    
                                                                                                    
                                                                                                    
                                                                                                    
                                                                                                    
                                                                                                    
                                                                                                    
                                                                                                    
                                                                                                    
                                                                                                    
                                                                                                    
                                                                                                    
                                                                                                    
                                                                                                    
                                                                                                    
                                                                                                    
                                                                                                    
                                                                                                    
                                                                                                    
                                                                                                    
                           
<?xpacket end="w"?></metadata>
<defs>
    <style>
      .cls-1 {
        fill: #d92027;
        fill-rule: evenodd;
      }
    </style>
  </defs>
  <path id="Shape_11_copy_4" data-name="Shape 11 copy 4" class="cls-1" d="M4490,479h-11a2,2,0,0,1-2-2V462a2,2,0,0,1,2-2h6a3.987,3.987,0,0,1,2.66.969c0.87,0.869,2.25,2.251,3.18,3.187a4.04,4.04,0,0,1,1.13,2.94c0,3.008.03,9.9,0.03,9.9A2,2,0,0,1,4490,479Zm-0.23-7.742a1.461,1.461,0,0,0-.76-0.437,3.743,3.743,0,0,0-1.06-.1,10.234,10.234,0,0,0-1.93.276,14,14,0,0,1-2.12-2.853,12.443,12.443,0,0,0,.46-2.828,1.741,1.741,0,0,0-.28-1.1,0.673,0.673,0,0,0-.67-0.208,1.291,1.291,0,0,0-.31.116,1.677,1.677,0,0,0-.79.924,2.133,2.133,0,0,0-.13.747,6.394,6.394,0,0,0,.76,2.552,29.877,29.877,0,0,1-1.49,4.281,9.7,9.7,0,0,0-1.54.948,3.519,3.519,0,0,0-.59.577,1.527,1.527,0,0,0-.3.668c0,0.049-.01.1-0.01,0.15a1.148,1.148,0,0,0,.27.724,0.8,0.8,0,0,0,.52.306,0.845,0.845,0,0,0,.55-0.144,6.237,6.237,0,0,0,1.72-2.531,20.315,20.315,0,0,1,3.61-1.225,8.289,8.289,0,0,0,1.12.909,3.066,3.066,0,0,0,1.51.566,1.592,1.592,0,0,0,.9-0.224,1.79,1.79,0,0,0,.73-1.023,1.212,1.212,0,0,0,.07-0.4A1.027,1.027,0,0,0,4489.77,471.258Zm-9.83,3.831a0.242,0.242,0,0,1-.14.058h0l-0.02-.02a0.2,0.2,0,0,1-.05-0.1l0.01-.02a0.421,0.421,0,0,1,.11-0.233,3.345,3.345,0,0,1,.92-0.771,5.625,5.625,0,0,1-.53.8A1.487,1.487,0,0,1,4479.94,475.089Zm5.33-3.657a27.816,27.816,0,0,0-2.98,1.028c0.44-1.078.85-2.251,1.2-3.42A19.441,19.441,0,0,0,4485.27,471.432Zm-2.16-6.18a0.484,0.484,0,0,1,.26-0.293h0v0a1.355,1.355,0,0,1,.07.5,8.655,8.655,0,0,1-.15,1.35,3.345,3.345,0,0,1-.24-1.146,1.138,1.138,0,0,1,.06-0.4h0Zm5.7,6.659v0.008c0,0.016-.01.048-0.02,0.1a0.827,0.827,0,0,1-.26.441,0.385,0.385,0,0,1-.22.056,1.761,1.761,0,0,1-.75-0.256,5.326,5.326,0,0,1-.6-0.407,8.013,8.013,0,0,1,1.01-.082,2.359,2.359,0,0,1,.71.082,0.327,0.327,0,0,1,.11.051Z" transform="translate(-4477 -460)"/>
</svg>
