<svg xmlns="http://www.w3.org/2000/svg" width="15" height="19" viewBox="0 0 15 19">
  <metadata><?xpacket begin="﻿" id="W5M0MpCehiHzreSzNTczkc9d"?>
<x:xmpmeta xmlns:x="adobe:ns:meta/" x:xmptk="Adobe XMP Core 5.6-c142 79.160924, 2017/07/13-01:06:39        ">
   <rdf:RDF xmlns:rdf="http://www.w3.org/1999/02/22-rdf-syntax-ns#">
      <rdf:Description rdf:about=""/>
   </rdf:RDF>
</x:xmpmeta>
                                                                                                    
                                                                                                    
                                                                                                    
                                                                                                    
                                                                                                    
                                                                                                    
                                                                                                    
                                                                                                    
                                                                                                    
                                                                                                    
                                                                                                    
                                                                                                    
                                                                                                    
                                                                                                    
                                                                                                    
                                                                                                    
                                                                                                    
                                                                                                    
                                                                                                    
                                                                                                    
                           
<?xpacket end="w"?></metadata>
<defs>
    <style>
      .cls-1 {
        fill: #d92027;
        fill-rule: evenodd;
      }
    </style>
  </defs>
  <path id="Rectangle_8_copy_3" data-name="Rectangle 8 copy 3" class="cls-1" d="M918.661,1915.92l0.793,6.63,1.145-6.63h2.008l1.051,6.63,0.935-6.63h1.821L925.06,1924h-2.476l-1-6.16-1.051,6.16h-2.452l-1.331-8.08h1.915ZM927,1928H916a2,2,0,0,1-2-2v-15a2,2,0,0,1,2-2h6a3.958,3.958,0,0,1,2.656.97c0.87,0.87,2.252,2.25,3.188,3.19a4.043,4.043,0,0,1,1.125,2.94c0,3,.031,9.9.031,9.9A2,2,0,0,1,927,1928Z" transform="translate(-914 -1909)"/>
</svg>
