<svg xmlns="http://www.w3.org/2000/svg" width="72" height="69" viewBox="0 0 72 69">
  <metadata><?xpacket begin="﻿" id="W5M0MpCehiHzreSzNTczkc9d"?>
<x:xmpmeta xmlns:x="adobe:ns:meta/" x:xmptk="Adobe XMP Core 5.6-c142 79.160924, 2017/07/13-01:06:39        ">
   <rdf:RDF xmlns:rdf="http://www.w3.org/1999/02/22-rdf-syntax-ns#">
      <rdf:Description rdf:about=""/>
   </rdf:RDF>
</x:xmpmeta>
                                                                                                    
                                                                                                    
                                                                                                    
                                                                                                    
                                                                                                    
                                                                                                    
                                                                                                    
                                                                                                    
                                                                                                    
                                                                                                    
                                                                                                    
                                                                                                    
                                                                                                    
                                                                                                    
                                                                                                    
                                                                                                    
                                                                                                    
                                                                                                    
                                                                                                    
                                                                                                    
                           
<?xpacket end="w"?></metadata>
<defs>
    <style>
      .cls-1 {
        fill: #fff;
        fill-rule: evenodd;
      }
    </style>
  </defs>
  <path class="cls-1" d="M1252.69,302.989a34.479,34.479,0,0,1-34.19-31.935l2.44-.182a31.861,31.861,0,1,0,31.75-34.4v-2.463A34.489,34.489,0,0,1,1252.69,302.989Zm-27.58-31.735H1215l4.9-12.332,0.15,0.054Zm26.55-7.063a3.7,3.7,0,1,1-3.67,3.7A3.683,3.683,0,0,1,1251.66,264.191Zm-1.22-16.717h2.45v20.339h-2.45V247.474Zm0.27,19.245,1.65,1.824-11.33,10.332-1.65-1.824Zm0.84,24.674a2.052,2.052,0,1,1-2.04,2.052A2.044,2.044,0,0,1,1251.55,291.393Zm26.09-25.354a2.052,2.052,0,1,1-2.04,2.052A2.044,2.044,0,0,1,1277.64,266.039Zm-3.46,12.83a2.052,2.052,0,1,1-2.04,2.052A2.052,2.052,0,0,1,1274.18,278.869Zm-9.59,9.366a2.052,2.052,0,1,1-2.04,2.052A2.053,2.053,0,0,1,1264.59,288.235Z" transform="translate(-1215 -234)"/>
</svg>
