<svg xmlns="http://www.w3.org/2000/svg" width="15" height="19" viewBox="0 0 15 19">
  <metadata><?xpacket begin="﻿" id="W5M0MpCehiHzreSzNTczkc9d"?>
<x:xmpmeta xmlns:x="adobe:ns:meta/" x:xmptk="Adobe XMP Core 5.6-c142 79.160924, 2017/07/13-01:06:39        ">
   <rdf:RDF xmlns:rdf="http://www.w3.org/1999/02/22-rdf-syntax-ns#">
      <rdf:Description rdf:about=""/>
   </rdf:RDF>
</x:xmpmeta>
                                                                                                    
                                                                                                    
                                                                                                    
                                                                                                    
                                                                                                    
                                                                                                    
                                                                                                    
                                                                                                    
                                                                                                    
                                                                                                    
                                                                                                    
                                                                                                    
                                                                                                    
                                                                                                    
                                                                                                    
                                                                                                    
                                                                                                    
                                                                                                    
                                                                                                    
                                                                                                    
                           
<?xpacket end="w"?></metadata>
<defs>
    <style>
      .cls-1 {
        fill: #fff;
        fill-rule: evenodd;
        opacity: 0.4;
      }
    </style>
  </defs>
  <path id="Rectangle_8_copy_3" data-name="Rectangle 8 copy 3" class="cls-1" d="M1698.66,2355.92l0.79,6.63,1.15-6.63h2.01l1.05,6.63,0.93-6.63h1.82l-1.35,8.08h-2.48l-1-6.17-1.05,6.17h-2.45l-1.33-8.08h1.91ZM1707,2368h-11a2,2,0,0,1-2-2v-15a1.993,1.993,0,0,1,2-2h6a3.968,3.968,0,0,1,2.66.97c0.87,0.87,2.25,2.25,3.18,3.19a4.026,4.026,0,0,1,1.13,2.94c0,3,.03,9.9.03,9.9A2.006,2.006,0,0,1,1707,2368Z" transform="translate(-1694 -2349)"/>
</svg>
