<svg xmlns="http://www.w3.org/2000/svg" width="22" height="22" viewBox="0 0 22 22">
  <metadata><?xpacket begin="﻿" id="W5M0MpCehiHzreSzNTczkc9d"?>
<x:xmpmeta xmlns:x="adobe:ns:meta/" x:xmptk="Adobe XMP Core 5.6-c142 79.160924, 2017/07/13-01:06:39        ">
   <rdf:RDF xmlns:rdf="http://www.w3.org/1999/02/22-rdf-syntax-ns#">
      <rdf:Description rdf:about=""/>
   </rdf:RDF>
</x:xmpmeta>
                                                                                                    
                                                                                                    
                                                                                                    
                                                                                                    
                                                                                                    
                                                                                                    
                                                                                                    
                                                                                                    
                                                                                                    
                                                                                                    
                                                                                                    
                                                                                                    
                                                                                                    
                                                                                                    
                                                                                                    
                                                                                                    
                                                                                                    
                                                                                                    
                                                                                                    
                                                                                                    
                           
<?xpacket end="w"?></metadata>
<defs>
    <style>
      .cls-1 {
        fill: #d92027;
        fill-rule: evenodd;
      }
    </style>
  </defs>
  <path class="cls-1" d="M246.481,5192.25l-3.362-3.37a1.741,1.741,0,0,0-1.272-.51,1.957,1.957,0,0,0-1.357.55l-1.635,1.64-0.263-.14a15.869,15.869,0,0,1-6.986-7.01l-0.134-.25,1.637-1.64a1.875,1.875,0,0,0,.044-2.64l-3.369-3.37a1.778,1.778,0,0,0-1.272-.51,1.934,1.934,0,0,0-1.362.56l-0.825.83a0.235,0.235,0,0,0-.051.07l-0.067.11a5.569,5.569,0,0,0-.786,1.39,5.909,5.909,0,0,0-.354,1.42c-0.449,3.73,1.244,7.14,5.838,11.74,5.439,5.46,10.022,5.88,11.3,5.88,0.139,0,.28-0.01.418-0.02a5.849,5.849,0,0,0,1.427-.36,5.74,5.74,0,0,0,1.4-.8l0.19-.15,0.027-.02,0.775-.76A1.877,1.877,0,0,0,246.481,5192.25Zm-0.53,2.14-0.758.75-0.173.14a4.808,4.808,0,0,1-1.223.69,4.951,4.951,0,0,1-1.254.32c-0.011,0-.129.01-0.342,0.01-1.207,0-5.55-.4-10.805-5.67-4.426-4.44-6.061-7.67-5.64-11.17a5.368,5.368,0,0,1,.31-1.25,4.873,4.873,0,0,1,.694-1.23l0.023-.04,0.064-.09,0.8-.8a1.231,1.231,0,0,1,.867-0.36,1.129,1.129,0,0,1,.781.31l3.363,3.37a1.186,1.186,0,0,1-.044,1.66l-1.834,1.83a0.339,0.339,0,0,0-.058.41l0.268,0.47a17.379,17.379,0,0,0,3.062,4.24,17.121,17.121,0,0,0,4.2,3.04l0.493,0.28a0.351,0.351,0,0,0,.411-0.07l1.82-1.83a1.274,1.274,0,0,1,.87-0.35,1.1,1.1,0,0,1,.784.32l3.359,3.37h0a1.135,1.135,0,0,1,.322.81,1.213,1.213,0,0,1-.361.84h0Zm-8.562-17.08a7.3,7.3,0,0,1,7.284,7.3,0.347,0.347,0,1,0,.694,0,8,8,0,0,0-7.978-8A0.35,0.35,0,0,0,237.389,5177.31Zm-0.694,3.24a4.75,4.75,0,0,1,4.741,4.75,0.347,0.347,0,1,0,.693,0,5.442,5.442,0,0,0-5.434-5.44A0.345,0.345,0,1,0,236.7,5180.55Z" transform="translate(-225 -5175)"/>
</svg>
