<svg xmlns="http://www.w3.org/2000/svg" width="78" height="78" viewBox="0 0 78 78">
  <metadata><?xpacket begin="﻿" id="W5M0MpCehiHzreSzNTczkc9d"?>
<x:xmpmeta xmlns:x="adobe:ns:meta/" x:xmptk="Adobe XMP Core 5.6-c142 79.160924, 2017/07/13-01:06:39        ">
   <rdf:RDF xmlns:rdf="http://www.w3.org/1999/02/22-rdf-syntax-ns#">
      <rdf:Description rdf:about=""/>
   </rdf:RDF>
</x:xmpmeta>
                                                                                                    
                                                                                                    
                                                                                                    
                                                                                                    
                                                                                                    
                                                                                                    
                                                                                                    
                                                                                                    
                                                                                                    
                                                                                                    
                                                                                                    
                                                                                                    
                                                                                                    
                                                                                                    
                                                                                                    
                                                                                                    
                                                                                                    
                                                                                                    
                                                                                                    
                                                                                                    
                           
<?xpacket end="w"?></metadata>
<defs>
    <style>
      .cls-1 {
        fill: #fff;
        fill-rule: evenodd;
      }
    </style>
  </defs>
  <path class="cls-1" d="M885.809,234.993a0.9,0.9,0,0,0-.3.139l-4.68,3.187-5.51-1.164a0.886,0.886,0,0,0-.914.388l-3.1,4.739-5.51,1.026a0.886,0.886,0,0,0-.72.72l-1.024,5.515-4.735,3.1a0.888,0.888,0,0,0-.388.915l1.163,5.515-3.184,4.684a0.885,0.885,0,0,0,0,1l3.184,4.656-1.163,5.515a0.888,0.888,0,0,0,.388.915l3.212,2.106L847.155,301.9a0.887,0.887,0,0,0,.914,1.358l12.488-2.5,3.323,11.612a0.886,0.886,0,0,0,1.606.222l13.152-21.949,2.187-.472,4.68,3.188a0.832,0.832,0,0,0,1,0l4.679-3.188,2.188,0.472,13.152,21.949a0.886,0.886,0,0,0,1.606-.222l3.323-11.612,12.487,2.5a0.887,0.887,0,0,0,.914-1.358L909.456,277.95l3.212-2.106a0.888,0.888,0,0,0,.388-0.915l-1.163-5.515,3.184-4.656a0.885,0.885,0,0,0,0-1l-3.184-4.684,1.163-5.515a0.888,0.888,0,0,0-.388-0.915l-4.735-3.1-1.024-5.515a0.887,0.887,0,0,0-.72-0.72l-5.51-1.026-3.1-4.739a0.883,0.883,0,0,0-.913-0.388l-5.483,1.164-4.679-3.187A0.892,0.892,0,0,0,885.809,234.993Zm0.194,1.94,4.458,3.049a0.885,0.885,0,0,0,.692.138l5.261-1.08,2.963,4.517a0.886,0.886,0,0,0,.582.388l5.316,1,1,5.321a0.888,0.888,0,0,0,.387.582l4.514,2.965-1.08,5.294a0.887,0.887,0,0,0,.138.693l3.046,4.462-3.046,4.434a0.885,0.885,0,0,0-.138.693l1.08,5.293-4.514,2.965a0.888,0.888,0,0,0-.387.583l-1,5.32-5.316,1a0.893,0.893,0,0,0-.582.388l-2.963,4.518-5.261-1.081a0.885,0.885,0,0,0-.692.138L886,291.558l-4.458-3.049a0.884,0.884,0,0,0-.692-0.138l-5.289,1.081-2.962-4.518a0.893,0.893,0,0,0-.582-0.388l-5.316-1-1-5.32a0.885,0.885,0,0,0-.388-0.583l-4.513-2.965,1.08-5.293a0.886,0.886,0,0,0-.139-0.693L858.7,264.26l3.045-4.462a0.888,0.888,0,0,0,.139-0.693l-1.08-5.294,4.513-2.965a0.886,0.886,0,0,0,.388-0.582l1-5.321,5.316-1a0.886,0.886,0,0,0,.582-0.388l2.962-4.517,5.289,1.08a0.884,0.884,0,0,0,.692-0.138Zm0,6.929a20.4,20.4,0,1,0,20.379,20.4A20.4,20.4,0,0,0,886,243.862h0Zm0,1.773A18.624,18.624,0,1,1,867.4,264.26,18.6,18.6,0,0,1,886,245.635h0Zm-21.985,33.286,0.028,0.027,1.024,5.515a0.884,0.884,0,0,0,.72.72l5.51,1.026,3.1,4.739a0.886,0.886,0,0,0,.914.388l1-.221-11.269,18.817-2.991-10.448a0.886,0.886,0,0,0-1.024-.637l-11.242,2.245,14.232-22.172h0Zm43.97,0,14.233,22.171-11.242-2.245a0.886,0.886,0,0,0-1.025.637l-2.99,10.449L895.7,291.142l0.969,0.194a0.883,0.883,0,0,0,.913-0.388l3.1-4.739,5.51-1.025a0.889,0.889,0,0,0,.72-0.721l1.024-5.515,0.056-.027h0ZM886,255.745l2.735,4.954,5.562,1.068-3.872,4.129,0.7,5.614-5.128-2.4-5.128,2.4,0.7-5.614-3.872-4.129,5.562-1.068L886,255.745m-0.015,3,1.843,3.225,3.749,0.695-2.61,2.687,0.474,3.654-3.456-1.563-3.456,1.563L883,265.352l-2.609-2.687,3.748-.695,1.843-3.225" transform="translate(-847 -235)"/>
</svg>
